<svg id="visual" viewBox="0 0 900 600" width="900" height="600" xmlns="http://www.w3.org/2000/svg" xmlns:xlink="http://www.w3.org/1999/xlink" version="1.1"><path d="M0 503L18.8 490.5C37.7 478 75.3 453 112.8 450.2C150.3 447.3 187.7 466.7 225.2 473.5C262.7 480.3 300.3 474.7 337.8 461.5C375.3 448.3 412.7 427.7 450.2 422.2C487.7 416.7 525.3 426.3 562.8 438.8C600.3 451.3 637.7 466.7 675.2 459.5C712.7 452.3 750.3 422.7 787.8 422C825.3 421.3 862.7 449.7 881.3 463.8L900 478L900 601L881.3 601C862.7 601 825.3 601 787.8 601C750.3 601 712.7 601 675.2 601C637.7 601 600.3 601 562.8 601C525.3 601 487.7 601 450.2 601C412.7 601 375.3 601 337.8 601C300.3 601 262.7 601 225.2 601C187.7 601 150.3 601 112.8 601C75.3 601 37.7 601 18.8 601L0 601Z" fill="#e1cfbd"></path><path d="M0 465L18.8 457.7C37.7 450.3 75.3 435.7 112.8 430.8C150.3 426 187.7 431 225.2 434.8C262.7 438.7 300.3 441.3 337.8 444.7C375.3 448 412.7 452 450.2 463.5C487.7 475 525.3 494 562.8 503C600.3 512 637.7 511 675.2 514.2C712.7 517.3 750.3 524.7 787.8 519.7C825.3 514.7 862.7 497.3 881.3 488.7L900 480L900 601L881.3 601C862.7 601 825.3 601 787.8 601C750.3 601 712.7 601 675.2 601C637.7 601 600.3 601 562.8 601C525.3 601 487.7 601 450.2 601C412.7 601 375.3 601 337.8 601C300.3 601 262.7 601 225.2 601C187.7 601 150.3 601 112.8 601C75.3 601 37.7 601 18.8 601L0 601Z" fill="#c29e93"></path><path d="M0 530L18.8 517.2C37.7 504.3 75.3 478.7 112.8 477.7C150.3 476.7 187.7 500.3 225.2 513C262.7 525.7 300.3 527.3 337.8 516.3C375.3 505.3 412.7 481.7 450.2 476.5C487.7 471.3 525.3 484.7 562.8 483.7C600.3 482.7 637.7 467.3 675.2 465.7C712.7 464 750.3 476 787.8 492C825.3 508 862.7 528 881.3 538L900 548L900 601L881.3 601C862.7 601 825.3 601 787.8 601C750.3 601 712.7 601 675.2 601C637.7 601 600.3 601 562.8 601C525.3 601 487.7 601 450.2 601C412.7 601 375.3 601 337.8 601C300.3 601 262.7 601 225.2 601C187.7 601 150.3 601 112.8 601C75.3 601 37.7 601 18.8 601L0 601Z" fill="#9f7075"></path><path d="M0 512L18.8 519C37.7 526 75.3 540 112.8 540.5C150.3 541 187.7 528 225.2 521.7C262.7 515.3 300.3 515.7 337.8 520.8C375.3 526 412.7 536 450.2 537.2C487.7 538.3 525.3 530.7 562.8 533.7C600.3 536.7 637.7 550.3 675.2 550.3C712.7 550.3 750.3 536.7 787.8 529.5C825.3 522.3 862.7 521.7 881.3 521.3L900 521L900 601L881.3 601C862.7 601 825.3 601 787.8 601C750.3 601 712.7 601 675.2 601C637.7 601 600.3 601 562.8 601C525.3 601 487.7 601 450.2 601C412.7 601 375.3 601 337.8 601C300.3 601 262.7 601 225.2 601C187.7 601 150.3 601 112.8 601C75.3 601 37.7 601 18.8 601L0 601Z" fill="#744760"></path><path d="M0 533L18.8 534.8C37.7 536.7 75.3 540.3 112.8 541.3C150.3 542.3 187.7 540.7 225.2 541.5C262.7 542.3 300.3 545.7 337.8 549.8C375.3 554 412.7 559 450.2 563.2C487.7 567.3 525.3 570.7 562.8 573.5C600.3 576.3 637.7 578.7 675.2 576.8C712.7 575 750.3 569 787.8 569C825.3 569 862.7 575 881.3 578L900 581L900 601L881.3 601C862.7 601 825.3 601 787.8 601C750.3 601 712.7 601 675.2 601C637.7 601 600.3 601 562.8 601C525.3 601 487.7 601 450.2 601C412.7 601 375.3 601 337.8 601C300.3 601 262.7 601 225.2 601C187.7 601 150.3 601 112.8 601C75.3 601 37.7 601 18.8 601L0 601Z" fill="#3f274e"></path></svg>