<?xml version="1.0" encoding="utf-8"?>
<!-- Generator: Adobe Illustrator 16.0.0, SVG Export Plug-In . SVG Version: 6.00 Build 0)  -->
<!DOCTYPE svg PUBLIC "-//W3C//DTD SVG 1.1//EN" "http://www.w3.org/Graphics/SVG/1.1/DTD/svg11.dtd">
<svg version="1.1" id="Ebene_1" xmlns="http://www.w3.org/2000/svg" xmlns:xlink="http://www.w3.org/1999/xlink" x="0px" y="0px"
	 width="838.7px" height="475.2px" viewBox="1.7 46 838.7 475.2" style="enable-background:new 1.7 46 838.7 475.2;"
	 xml:space="preserve">
<style type="text/css">
<![CDATA[
	.st0{clip-path:url(#SVGID_6_);fill:#FFFFFF;}
	.st1{clip-path:url(#SVGID_8_);fill:#FFFFFF;}
	.st2{clip-path:url(#SVGID_10_);fill:#FFFFFF;}
	.st3{fill:#FFFFFF;}
	.st4{clip-path:url(#SVGID_2_);fill:#FFFFFF;}
	.st5{clip-path:url(#SVGID_4_);fill:#FFFFFF;}
]]>
</style>
<g>
	<g>
		<defs>
			<rect id="SVGID_1_" x="1.7" y="46" width="838.7" height="475.2"/>
		</defs>
		<clipPath id="SVGID_2_">
			<use xlink:href="#SVGID_1_"  style="overflow:visible;"/>
		</clipPath>
		<path class="st4" d="M315.9,360.8l-12-12c-16.6-16.6-41.4-19.7-61.1-9.7c-46.6,24.5-105.3,17.2-144.4-21.9
			c-11.6-11.6-20.3-24.9-26.4-39.1c-8.7-20.3-29.8-30.4-53.7-30.4H1.5C5.5,289,23.2,329,54.8,360.6c18.3,18.3,39.6,32,62.3,41
			C183.6,428.2,262.3,414.6,315.9,360.8"/>
	</g>
	<g>
		<defs>
			<rect id="SVGID_3_" x="1.7" y="46" width="838.7" height="475.2"/>
		</defs>
		<clipPath id="SVGID_4_">
			<use xlink:href="#SVGID_3_"  style="overflow:visible;"/>
		</clipPath>
		<path class="st5" d="M186.2,168.8c-33.9,0-61.5,27.6-61.5,61.5s27.6,61.5,61.5,61.5c33.9,0,61.5-27.6,61.5-61.5
			S220.3,168.8,186.2,168.8"/>
	</g>
	<g>
		<defs>
			<rect id="SVGID_5_" x="1.7" y="46" width="838.7" height="475.2"/>
		</defs>
		<clipPath id="SVGID_6_">
			<use xlink:href="#SVGID_5_"  style="overflow:visible;"/>
		</clipPath>
		<path class="st0" d="M303.9,111.8l12-12C267,50.9,197.6,35.1,135.3,52.7C105.9,60.9,78.1,76.7,55,99.8
			C23.4,131.4,5.7,171.6,1.7,212.6h16.8c23.5,0,44.4-9.7,53.5-29.6l0.2-0.6c5.9-14.2,14.8-27.6,26.4-39.1c1.8-1.6,3.4-3.4,5.1-4.9
			l1-0.8c15.6-13.6,33.9-22.7,53.1-27c28.4-6.5,58.8-3,85.2,11C262.5,131.6,287.5,128.4,303.9,111.8"/>
	</g>
</g>
<path class="st3" d="M668.4,392.5v-87h-15v66.7h-1.6l-27-66.7h-25.1v87h15v-67.1h1.8l27,67.1H668.4z M586.6,392.5v-13.2h-32.2v-24.5
	h21.9v-13.2h-21.9v-22.5h31.4v-13.4h-48.9v87h49.7V392.5z M517.9,305.5h-17.4v87h17.4V305.5z M488.1,305.5h-15.8l-11.8,66.3h-1.8
	l-12.2-66.3h-21.7l-13,66.3H410l-10.8-66.3h-18.7l19.3,87h21.9l11.8-62.3l0.2-1.2h1.8l12.8,63.3h21.3L488.1,305.5z"/>
<g>
	<g>
		<defs>
			<rect id="SVGID_7_" x="1.7" y="46" width="838.7" height="475.2"/>
		</defs>
		<clipPath id="SVGID_8_">
			<use xlink:href="#SVGID_7_"  style="overflow:visible;"/>
		</clipPath>
		<path class="st1" d="M840.4,245.8c0-13.8-6.9-20.5-19.7-24.3c-7.1-2-16.8-4.1-16.8-12.8c0-10.1,9.3-11.6,14.8-11.6
			c9.3,0,16.4,1.4,16.4,1.4v-12.6c-4.1-0.8-9.9-2-19.1-2c-22.3,0-30.2,12.4-30.2,26.2c0,16,8.1,20.3,21.3,24.7
			c6.5,2.2,14.8,4.9,14.8,13.4c0,9.3-6.9,12.6-15,12.6c-9.9,0-20.7-2.4-20.7-2.4v13c0,0,10.3,2.6,22.7,2.6
			C827.2,273.8,840.4,264.3,840.4,245.8 M770.2,244.6v-59.4H754v60c0,9.3-1,15.2-12.2,15.2s-12.6-5.9-12.6-15.2v-60h-17.4v59.4
			c0,20.3,8.7,29,29.8,29C763.5,273.6,770.2,265.3,770.2,244.6 M681.3,214c0,13.2-3.9,16.6-11.6,16.6h-9.9v-33.3h9.9
			C677.3,197.2,681.3,200.6,681.3,214 M699.6,213.8c0-13.6-4.9-28.6-28.8-28.6h-28.2v87H660V243h12.4
			C691.5,243,699.6,228.8,699.6,213.8 M627.2,272.2l-6.5-87h-27.2l-13.8,66.1h-1.8l-13.2-66.1h-28l-6.5,87h15l4.3-72l0.2-1.6h1.8
			L567,272h22.1l16-72l0.2-1.6h1.8l3.5,73.4h16.6V272.2z M494.5,240.1h-20.3l9.5-39.3h1.8L494.5,240.1z M521.7,272.2l-25.6-87h-22.9
			l-26.8,87h18.5l5.1-19.9h27.4l5.5,19.9H521.7z M438.6,271.2v-12.6c0,0-8.5,1.6-15.8,1.6c-15,0-24.3-4.3-24.3-31.6
			c0-27,9.5-31.2,24.3-31.2c6.9,0,15.8,1.6,15.8,1.6v-12.4c0,0-9.5-2.6-21.3-2.6c-25.4,0-37.7,15.6-37.7,45c0,29.6,12.2,45,37.7,45
			C429.4,273.8,438.6,271.2,438.6,271.2"/>
	</g>
</g>
<path class="st3" d="M507.1,151.9v-87h-17.4v35.5h-27V64.9h-17.2v87h17.2V114h27v37.9H507.1z M432.7,78.9v-14h-49.1v87H401v-35.3
	h22.9V103h-23.1V78.9H432.7z"/>
<g>
	<g>
		<defs>
			<rect id="SVGID_9_" x="1.7" y="46" width="838.7" height="475.2"/>
		</defs>
		<clipPath id="SVGID_10_">
			<use xlink:href="#SVGID_9_"  style="overflow:visible;"/>
		</clipPath>
		<path class="st2" d="M840.4,507.9c0-7.3-4.9-9.7-9.9-11.4c-3.7-1.2-8.7-2.6-8.7-7.5c0-5.7,5.1-6.5,8.7-6.5c3.2,0,6.3,0.4,7.3,0.6
			v-4.5c-1.2-0.2-4.3-0.8-8.9-0.8c-9.1,0-13.4,4.7-13.4,11.8c0,7.9,5.9,9.9,10.5,11.4c4.7,1.8,7.9,3,7.9,8.1c0,4.9-3.9,7.1-8.7,7.1
			c-3.4,0-8.1-0.8-9.5-1v4.7c1,0.2,5.3,1,9.9,1C834.3,520.9,840.4,516.8,840.4,507.9 M810.7,520.4v-4.5h-16.4v-14.6h11.6v-4.5h-11.6
			v-13.4h16.2v-4.5h-22.3v41.6H810.7L810.7,520.4z M782.6,520v-4.5c-1.8,0.4-4.1,1-6.7,1c-8.9,0-13.2-5.3-13.2-17
			c0-10.8,3.7-16.8,13.6-16.8c2.6,0,5.3,0.4,6.3,0.6v-4.5c-1-0.2-4.1-0.8-8.1-0.8c-11,0-18.3,7.3-18.3,21.5
			c0,14.6,7.5,21.7,18.1,21.7C777.7,520.9,780.7,520.5,782.6,520 M749.1,520.4v-41.6h-5.5l0.4,34.3h-1l-15.4-34.3h-9.1v41.6h5.5
			l-0.4-34.5h0.8l15.8,34.5H749.1z M713,520.4v-4.5h-16.4v-14.6h11.6v-4.5h-11.6v-13.4h16.2v-4.5h-22.3v41.6H713L713,520.4z
			 M681.8,478.5h-5.9v41.6h5.9V478.5z M670.4,520v-4.5c-1.8,0.4-4.1,1-6.7,1c-8.9,0-13.2-5.3-13.2-17c0-10.8,3.7-16.8,13.6-16.8
			c2.6,0,5.3,0.4,6.3,0.6v-4.5c-1-0.2-4.1-0.8-8.1-0.8c-11,0-18.3,7.3-18.3,21.5c0,14.6,7.5,21.7,18.1,21.7
			C665.5,520.9,668.4,520.5,670.4,520 M639,507.9c0-7.3-4.9-9.7-9.9-11.4c-3.7-1.2-8.7-2.6-8.7-7.5c0-5.7,5.1-6.5,8.7-6.5
			c3.2,0,6.3,0.4,7.3,0.6v-4.5c-1.2-0.2-4.3-0.8-8.9-0.8c-9.1,0-13.4,4.7-13.4,11.8c0,7.9,5.9,9.9,10.5,11.4c4.7,1.8,7.9,3,7.9,8.1
			c0,4.9-3.9,7.1-8.7,7.1c-3.4,0-8.1-0.8-9.5-1v4.7c1,0.2,5.3,1,9.9,1C632.7,520.9,639,516.8,639,507.9 M586.4,499.4
			c0,7.9-1.6,12-3.5,14.2c-1.8,1.8-4.1,2.4-6.3,2.4h-6.7v-33.1h4.7c2.6,0,5.1,0,7.3,1.6C584.4,486.4,586.4,490.6,586.4,499.4
			 M592.9,499.4c0-9.9-2.8-15.2-6.7-17.9c-3.2-2.4-7.1-2.8-11.2-2.8h-11.4v41.6h11.4c4.1,0,8.1-0.6,11.2-3
			C590.1,514.6,592.9,509.3,592.9,499.4 M558,520.4v-4.5h-16.4v-14.6h11.6v-4.5h-11.6v-13.4h16.2v-4.5h-22.3v41.6H558L558,520.4z
			 M526.8,478.5h-5.9v41.6h5.9V478.5z M515.8,520.4v-4.7h-15.6v-37.1h-6.1v41.6h21.7V520.4z M482.2,491.7c0,7.5-3.2,9.3-7.3,9.3
			h-4.7v-18.1h4.7C479.1,482.9,482.2,484.3,482.2,491.7 M488.7,491.7c0-6.5-2.4-13-13.2-13h-11.2v41.6h6.1v-15h5.5
			C485.4,505.2,488.7,498.7,488.7,491.7 M452.4,491.7c0,7.5-3.2,9.3-7.3,9.3h-4.7v-18.1h4.7C449.3,482.9,452.4,484.3,452.4,491.7
			 M458.8,491.7c0-6.5-2.4-13-13.2-13h-11.2v41.6h6.1v-15h5.5C455.6,505.2,458.8,498.7,458.8,491.7 M418.5,505.8h-12.8l5.7-21.5h1.4
			L418.5,505.8z M429.4,520.4l-12.6-41.6h-8.7l-12.8,41.6h6.3l3-10.3h15.6l3,10.3H429.4z M378.3,483.3v-4.7h-22.5v41.6h6.1V502h12.4
			v-4.5h-12.4v-14.2H378.3z M342.2,499.4c0,7.5-0.8,17.2-9.9,17.2c-9.1,0-9.9-9.7-9.9-17.2c0-7.5,0.8-17.2,9.9-17.2
			C341.4,482.3,342.2,491.9,342.2,499.4 M348.7,499.4c0-14-6.1-21.7-16.2-21.7c-10.1,0-16.2,7.7-16.2,21.7c0,14,6.1,21.7,16.2,21.7
			C342.6,521.1,348.7,513.4,348.7,499.4 M297.8,478.5h-6.3c-1,2-8.1,18.9-8.3,19.9H282l-8.5-19.9h-7.1l12.4,25.4v16.4h6.1v-15.6
			L297.8,478.5z M263.3,483.5v-4.7h-27.4v4.7h10.7v36.9h6.1v-36.9H263.3z M230.9,478.5H225v41.6h5.9V478.5z M218.9,507.9
			c0-7.3-4.9-9.7-9.9-11.4c-3.7-1.2-8.7-2.6-8.7-7.5c0-5.7,5.1-6.5,8.7-6.5c3.2,0,6.3,0.4,7.3,0.6v-4.5c-1.2-0.2-4.3-0.8-8.9-0.8
			c-9.1,0-13.4,4.7-13.4,11.8c0,7.9,5.9,9.9,10.5,11.4c4.7,1.8,7.9,3,7.9,8.1c0,4.9-3.9,7.1-8.7,7.1c-3.4,0-8.1-0.8-9.5-1v4.7
			c1,0.2,5.3,1,9.9,1C212.8,520.9,218.9,516.8,218.9,507.9 M180.8,491c0,7.5-4.5,8.5-7.5,8.5h-5.1v-16.8h5.3
			C176.5,482.9,180.8,483.5,180.8,491 M189.1,520.4l-9.1-17.6l0.4-0.8c5.1-2,6.7-6.7,6.7-11.4c0-8.5-4.9-12-13-12h-12.2v41.6h5.9
			v-16.6h5.9l8.1,16.6h7.3V520.4z M156.4,520.4v-4.5H140v-14.6h11.8v-4.5H140v-13.4h16.2v-4.5h-22.3v41.6H156.4L156.4,520.4z
			 M128.8,478.5H123l-9.3,35.5h-1.2l-9.1-35.5H97l11.6,41.6h8.5L128.8,478.5z M92.1,478.5h-6.1v41.6h6.1V478.5z M77.5,520.4v-41.6
			h-5.5l0.4,34.3h-1L56,478.7h-9.1v41.6h5.5L52,485.8h0.8l15.8,34.5H77.5z M38.6,506.9v-28.4h-5.5v28.6c0,6.7-2.2,9.3-7.7,9.3
			c-5.7,0-7.5-2.6-7.5-9.3v-28.6h-6.1v28.4c0,9.1,2.8,13.8,13.6,13.8C35.3,520.9,38.6,515.8,38.6,506.9"/>
	</g>
</g>
</svg>
