<?xml version="1.0" standalone="no"?>
<svg xmlns:xlink="http://www.w3.org/1999/xlink" id="wave" style="transform:rotate(0deg); transition: 0.3s" viewBox="0 0 1440 350" version="1.1" xmlns="http://www.w3.org/2000/svg"><defs><linearGradient id="sw-gradient-0" x1="0" x2="0" y1="1" y2="0"><stop stop-color="rgba(125, 67, 226, 1)" offset="0%"/><stop stop-color="rgba(221, 238, 254, 1)" offset="100%"/></linearGradient></defs><path style="transform:translate(0, 0px); opacity:1" fill="url(#sw-gradient-0)" d="M0,175L34.3,175C68.6,175,137,175,206,157.5C274.3,140,343,105,411,87.5C480,70,549,70,617,99.2C685.7,128,754,187,823,192.5C891.4,198,960,152,1029,110.8C1097.1,70,1166,35,1234,35C1302.9,35,1371,70,1440,70C1508.6,70,1577,35,1646,40.8C1714.3,47,1783,93,1851,140C1920,187,1989,233,2057,250.8C2125.7,268,2194,257,2263,250.8C2331.4,245,2400,245,2469,233.3C2537.1,222,2606,198,2674,163.3C2742.9,128,2811,82,2880,81.7C2948.6,82,3017,128,3086,157.5C3154.3,187,3223,198,3291,180.8C3360,163,3429,117,3497,87.5C3565.7,58,3634,47,3703,58.3C3771.4,70,3840,105,3909,122.5C3977.1,140,4046,140,4114,145.8C4182.9,152,4251,163,4320,145.8C4388.6,128,4457,82,4526,75.8C4594.3,70,4663,105,4731,99.2C4800,93,4869,47,4903,23.3L4937.1,0L4937.1,350L4902.9,350C4868.6,350,4800,350,4731,350C4662.9,350,4594,350,4526,350C4457.1,350,4389,350,4320,350C4251.4,350,4183,350,4114,350C4045.7,350,3977,350,3909,350C3840,350,3771,350,3703,350C3634.3,350,3566,350,3497,350C3428.6,350,3360,350,3291,350C3222.9,350,3154,350,3086,350C3017.1,350,2949,350,2880,350C2811.4,350,2743,350,2674,350C2605.7,350,2537,350,2469,350C2400,350,2331,350,2263,350C2194.3,350,2126,350,2057,350C1988.6,350,1920,350,1851,350C1782.9,350,1714,350,1646,350C1577.1,350,1509,350,1440,350C1371.4,350,1303,350,1234,350C1165.7,350,1097,350,1029,350C960,350,891,350,823,350C754.3,350,686,350,617,350C548.6,350,480,350,411,350C342.9,350,274,350,206,350C137.1,350,69,350,34,350L0,350Z"/><defs><linearGradient id="sw-gradient-1" x1="0" x2="0" y1="1" y2="0"><stop stop-color="rgba(110.005, 67, 226, 1)" offset="0%"/><stop stop-color="rgba(221, 238, 254, 1)" offset="100%"/></linearGradient></defs><path style="transform:translate(0, 50px); opacity:0.9" fill="url(#sw-gradient-1)" d="M0,315L34.3,303.3C68.6,292,137,268,206,256.7C274.3,245,343,245,411,204.2C480,163,549,82,617,46.7C685.7,12,754,23,823,52.5C891.4,82,960,128,1029,122.5C1097.1,117,1166,58,1234,35C1302.9,12,1371,23,1440,52.5C1508.6,82,1577,128,1646,134.2C1714.3,140,1783,105,1851,110.8C1920,117,1989,163,2057,163.3C2125.7,163,2194,117,2263,99.2C2331.4,82,2400,93,2469,134.2C2537.1,175,2606,245,2674,256.7C2742.9,268,2811,222,2880,180.8C2948.6,140,3017,105,3086,110.8C3154.3,117,3223,163,3291,175C3360,187,3429,163,3497,180.8C3565.7,198,3634,257,3703,280C3771.4,303,3840,292,3909,291.7C3977.1,292,4046,303,4114,285.8C4182.9,268,4251,222,4320,221.7C4388.6,222,4457,268,4526,268.3C4594.3,268,4663,222,4731,180.8C4800,140,4869,105,4903,87.5L4937.1,70L4937.1,350L4902.9,350C4868.6,350,4800,350,4731,350C4662.9,350,4594,350,4526,350C4457.1,350,4389,350,4320,350C4251.4,350,4183,350,4114,350C4045.7,350,3977,350,3909,350C3840,350,3771,350,3703,350C3634.3,350,3566,350,3497,350C3428.6,350,3360,350,3291,350C3222.9,350,3154,350,3086,350C3017.1,350,2949,350,2880,350C2811.4,350,2743,350,2674,350C2605.7,350,2537,350,2469,350C2400,350,2331,350,2263,350C2194.3,350,2126,350,2057,350C1988.6,350,1920,350,1851,350C1782.9,350,1714,350,1646,350C1577.1,350,1509,350,1440,350C1371.4,350,1303,350,1234,350C1165.7,350,1097,350,1029,350C960,350,891,350,823,350C754.3,350,686,350,617,350C548.6,350,480,350,411,350C342.9,350,274,350,206,350C137.1,350,69,350,34,350L0,350Z"/></svg>