<?xml version="1.0" standalone="no"?>
<svg xmlns:xlink="http://www.w3.org/1999/xlink" id="wave" style="transform:rotate(180deg); transition: 0.3s" viewBox="0 0 1440 490" version="1.1" xmlns="http://www.w3.org/2000/svg"><defs><linearGradient id="sw-gradient-0" x1="0" x2="0" y1="1" y2="0"><stop stop-color="rgba(99.231, 67, 226, 1)" offset="0%"/><stop stop-color="rgba(221, 238, 254, 1)" offset="100%"/></linearGradient></defs><path style="transform:translate(0, 0px); opacity:1" fill="url(#sw-gradient-0)" d="M0,294L80,302.2C160,310,320,327,480,277.7C640,229,800,114,960,73.5C1120,33,1280,65,1440,114.3C1600,163,1760,229,1920,277.7C2080,327,2240,359,2400,310.3C2560,261,2720,131,2880,73.5C3040,16,3200,33,3360,32.7C3520,33,3680,16,3840,32.7C4000,49,4160,98,4320,138.8C4480,180,4640,212,4800,228.7C4960,245,5120,245,5280,204.2C5440,163,5600,82,5760,65.3C5920,49,6080,98,6240,130.7C6400,163,6560,180,6720,155.2C6880,131,7040,65,7200,89.8C7360,114,7520,229,7680,302.2C7840,376,8000,408,8160,351.2C8320,294,8480,147,8640,73.5C8800,0,8960,0,9120,24.5C9280,49,9440,98,9600,98C9760,98,9920,49,10080,40.8C10240,33,10400,65,10560,89.8C10720,114,10880,131,11040,163.3C11200,196,11360,245,11440,269.5L11520,294L11520,490L11440,490C11360,490,11200,490,11040,490C10880,490,10720,490,10560,490C10400,490,10240,490,10080,490C9920,490,9760,490,9600,490C9440,490,9280,490,9120,490C8960,490,8800,490,8640,490C8480,490,8320,490,8160,490C8000,490,7840,490,7680,490C7520,490,7360,490,7200,490C7040,490,6880,490,6720,490C6560,490,6400,490,6240,490C6080,490,5920,490,5760,490C5600,490,5440,490,5280,490C5120,490,4960,490,4800,490C4640,490,4480,490,4320,490C4160,490,4000,490,3840,490C3680,490,3520,490,3360,490C3200,490,3040,490,2880,490C2720,490,2560,490,2400,490C2240,490,2080,490,1920,490C1760,490,1600,490,1440,490C1280,490,1120,490,960,490C800,490,640,490,480,490C320,490,160,490,80,490L0,490Z"/></svg>