<?xml version="1.0" standalone="no"?>
<svg xmlns:xlink="http://www.w3.org/1999/xlink" id="wave" style="transform:rotate(180deg); transition: 0.3s" viewBox="0 0 1440 190" version="1.1" xmlns="http://www.w3.org/2000/svg"><defs><linearGradient id="sw-gradient-0" x1="0" x2="0" y1="1" y2="0"><stop stop-color="rgba(160.413, 131.1, 255, 1)" offset="0%"/><stop stop-color="rgba(221, 238, 254, 1)" offset="100%"/></linearGradient></defs><path style="transform:translate(0, 0px); opacity:1" fill="url(#sw-gradient-0)" d="M0,0L40,6.3C80,13,160,25,240,47.5C320,70,400,101,480,117.2C560,133,640,133,720,114C800,95,880,57,960,50.7C1040,44,1120,70,1200,72.8C1280,76,1360,57,1440,47.5C1520,38,1600,38,1680,44.3C1760,51,1840,63,1920,72.8C2000,82,2080,89,2160,104.5C2240,120,2320,146,2400,155.2C2480,165,2560,158,2640,139.3C2720,120,2800,89,2880,88.7C2960,89,3040,120,3120,139.3C3200,158,3280,165,3360,139.3C3440,114,3520,57,3600,53.8C3680,51,3760,101,3840,123.5C3920,146,4000,139,4080,120.3C4160,101,4240,70,4320,72.8C4400,76,4480,114,4560,114C4640,114,4720,76,4800,79.2C4880,82,4960,127,5040,148.8C5120,171,5200,171,5280,142.5C5360,114,5440,57,5520,44.3C5600,32,5680,63,5720,79.2L5760,95L5760,190L5720,190C5680,190,5600,190,5520,190C5440,190,5360,190,5280,190C5200,190,5120,190,5040,190C4960,190,4880,190,4800,190C4720,190,4640,190,4560,190C4480,190,4400,190,4320,190C4240,190,4160,190,4080,190C4000,190,3920,190,3840,190C3760,190,3680,190,3600,190C3520,190,3440,190,3360,190C3280,190,3200,190,3120,190C3040,190,2960,190,2880,190C2800,190,2720,190,2640,190C2560,190,2480,190,2400,190C2320,190,2240,190,2160,190C2080,190,2000,190,1920,190C1840,190,1760,190,1680,190C1600,190,1520,190,1440,190C1360,190,1280,190,1200,190C1120,190,1040,190,960,190C880,190,800,190,720,190C640,190,560,190,480,190C400,190,320,190,240,190C160,190,80,190,40,190L0,190Z"/><defs><linearGradient id="sw-gradient-1" x1="0" x2="0" y1="1" y2="0"><stop stop-color="rgba(69.406, 41.796, 205.328, 1)" offset="0%"/><stop stop-color="rgba(221, 238, 254, 1)" offset="100%"/></linearGradient></defs><path style="transform:translate(0, 50px); opacity:0.9" fill="url(#sw-gradient-1)" d="M0,76L40,76C80,76,160,76,240,85.5C320,95,400,114,480,104.5C560,95,640,57,720,44.3C800,32,880,44,960,41.2C1040,38,1120,19,1200,38C1280,57,1360,114,1440,129.8C1520,146,1600,120,1680,107.7C1760,95,1840,95,1920,79.2C2000,63,2080,32,2160,31.7C2240,32,2320,63,2400,79.2C2480,95,2560,95,2640,82.3C2720,70,2800,44,2880,50.7C2960,57,3040,95,3120,95C3200,95,3280,57,3360,38C3440,19,3520,19,3600,25.3C3680,32,3760,44,3840,60.2C3920,76,4000,95,4080,88.7C4160,82,4240,51,4320,60.2C4400,70,4480,120,4560,145.7C4640,171,4720,171,4800,155.2C4880,139,4960,108,5040,82.3C5120,57,5200,38,5280,47.5C5360,57,5440,95,5520,91.8C5600,89,5680,44,5720,22.2L5760,0L5760,190L5720,190C5680,190,5600,190,5520,190C5440,190,5360,190,5280,190C5200,190,5120,190,5040,190C4960,190,4880,190,4800,190C4720,190,4640,190,4560,190C4480,190,4400,190,4320,190C4240,190,4160,190,4080,190C4000,190,3920,190,3840,190C3760,190,3680,190,3600,190C3520,190,3440,190,3360,190C3280,190,3200,190,3120,190C3040,190,2960,190,2880,190C2800,190,2720,190,2640,190C2560,190,2480,190,2400,190C2320,190,2240,190,2160,190C2080,190,2000,190,1920,190C1840,190,1760,190,1680,190C1600,190,1520,190,1440,190C1360,190,1280,190,1200,190C1120,190,1040,190,960,190C880,190,800,190,720,190C640,190,560,190,480,190C400,190,320,190,240,190C160,190,80,190,40,190L0,190Z"/></svg>